<svg width="1132" height="874" viewBox="0 0 1132 874" fill="none" xmlns="http://www.w3.org/2000/svg">
<path d="M1092.88 351.23H0.0300293V459.361H1092.88V351.23Z" fill="#A64B65"/>
<path d="M571.86 351.261V459.361H521.03V351.261H571.86ZM795.58 351.261V459.361H846.41V351.261H795.58ZM246.48 351.261V459.361H297.31V351.261H246.48Z" fill="#672A5D"/>
<path d="M1092.93 377.97H0L0.0300598 351.23H1092.88L1092.93 377.97Z" fill="#FFC7A9"/>
<path opacity="0.24" d="M1092.88 459.36H0.0300598L0 432.58H1092.93L1092.88 459.36Z" fill="#394573"/>
<path d="M1131.34 705.89H1.19006V873.85H1131.34V705.89Z" fill="#35316C"/>
<path d="M877.34 766.52H255.18V813.219H877.34V766.52Z" fill="#459AE6"/>
<path opacity="0.41" d="M1131.34 735.986V705.886L1.19202 705.886V735.986L1131.34 735.986Z" fill="#FFFFEF"/>
<path opacity="0.14" d="M1131.34 873.846V843.746L1.19202 843.746V873.846L1131.34 873.846Z" fill="#2F3865"/>
<path d="M933 171.76H916.73C906.43 150.8 903 121.71 902.81 97.86C902.99 74 906.43 44.92 916.73 23.96H933C944.75 21.79 948.15 3.62 933.33 0H231.89C194.67 9.76 168.89 55.22 167.97 97.85C168.89 140.48 192.23 184.76 229.44 194.52H932.1C946.94 190.91 944.75 173.93 933 171.76Z" fill="#FF8D64"/>
<path d="M920.17 171.759H259.99C238.48 171.759 218.05 158.56 209.19 136.69C197.44 108.13 200.69 70.1695 218.23 44.4995C219.49 42.5095 220.94 40.6996 222.57 39.0796C231.97 28.7796 244.99 23.3496 258.36 23.3496L560.43 23.8896H561.7L916.38 24.6095C915.84 26.5995 915.47 28.7696 915.11 30.7596C904.44 77.5796 905.89 124.579 920.17 171.759Z" fill="#FFE4BE"/>
<path d="M922.74 171.84H566.37C538.7 122.83 538.52 73.4 566.37 23.96H567.66L917.39 24.59C917.02 25.43 910.01 58.25 909.09 73.81C907.06 103.68 910.75 133.76 920.16 163.84C920.9 166.58 921.82 169.1 922.74 171.84Z" fill="#FFFFCD"/>
<path d="M917.39 24.5898C916.85 27.7898 915.47 32.0798 915.1 35.2798H262.69C236.66 35.2798 215.55 48.6699 215.55 48.6699C224.95 32.0699 242.34 23.3398 258.35 23.3398L560.42 24.2099H561.69L917.39 24.5898Z" fill="#FFE4BE"/>
<path d="M1066.85 582.62C1066.87 582.07 1066.98 581.52 1066.98 580.97H1066.71C1064.72 528.57 1036.6 476.71 984.91 459.36H84.66C76.89 466.59 70.2 479.25 88.28 487.92H99.31C111.22 518.14 117.46 550.45 117.84 582.62C117.46 614.79 111.21 647.11 99.31 677.32H88.28C70.2 686 76.89 698.65 84.66 705.88H984.91C1036.61 688.53 1064.72 636.66 1066.71 584.27H1066.98C1066.98 583.72 1066.87 583.18 1066.85 582.62Z" fill="#FF8D64"/>
<path d="M1011.85 641.04C999.02 664 975.15 677.37 949.84 677.37H99.66C121.17 619.16 122.62 560.77 104.36 502.56C104.36 502.56 104.36 502.56 104.18 502.56C102.73 497.68 101.11 492.8 99.2999 487.92H950.2C975.15 487.92 999.01 500.94 1011.84 523.53C1032.46 560.05 1032.82 603.8 1011.85 641.04Z" fill="#FFE4BE"/>
<path d="M514 677.37H99.6699C121.18 619.16 122.63 560.77 104.37 502.56C104.37 502.56 104.37 502.56 104.19 502.56C102.74 497.68 101.12 492.8 99.3099 487.92H514C516.35 492.8 518.52 497.68 520.51 502.56C544.19 560.77 542.02 619.16 514 677.37Z" fill="#FFFFCD"/>
<path d="M1011.85 523.53C991.78 505.81 949.48 502.56 949.48 502.56H104.37C104.37 502.56 104.37 502.56 104.19 502.56C102.74 497.68 101.12 492.8 99.3099 487.92H950.21C975.15 487.92 999.01 500.94 1011.85 523.53Z" fill="#FFE4BE"/>
<path d="M996.37 194.53H96.55V351.23H996.37V194.53Z" fill="#ABC570"/>
<path d="M546.45 307.61C624.035 307.61 686.93 292.097 686.93 272.961C686.93 253.824 624.035 238.311 546.45 238.311C468.865 238.311 405.97 253.824 405.97 272.961C405.97 292.097 468.865 307.61 546.45 307.61Z" fill="#BFE979"/>
<path d="M262.13 351.2H210.91V194.72H262.13V351.2ZM881.98 194.71H830.76V351.19H881.98V194.71Z" fill="#BFE979"/>
<path d="M996.37 194.53H96.55V229.18H996.37V194.53Z" fill="#BFE979"/>
<path opacity="0.23" d="M996.37 318.051H96.55V351.221H996.37V318.051Z" fill="#D77262"/>
</svg>
