<svg width="703" height="868" viewBox="0 0 703 868" fill="none" xmlns="http://www.w3.org/2000/svg">
<path d="M693.194 326.349H592.467C619.703 322.486 640.829 298.934 640.829 270.676V260.656C640.829 229.728 615.528 204.423 584.601 204.416H639.506C643.561 204.416 646.879 201.098 646.879 197.043C646.879 192.988 643.561 189.67 639.506 189.67H634.024V106.302H639.506C643.561 106.302 646.879 102.984 646.879 98.9292C646.879 94.8743 643.561 91.5565 639.506 91.5565H597.348C600.442 91.5565 603.254 90.2907 605.293 88.2524C605.381 88.1636 605.447 88.0538 605.532 87.9626C606.207 87.2411 606.766 86.4241 607.235 85.5462C607.626 84.814 607.94 84.0425 608.162 83.2259C608.417 82.2892 608.597 81.323 608.597 80.3088V12.0636C608.597 5.87722 603.535 0.81543 597.348 0.81543H20.9542C14.7678 0.81543 9.70602 5.87722 9.70602 12.0636V80.3083C9.70602 86.4947 14.7678 91.5565 20.9542 91.5565H142.699C138.644 91.5565 135.326 94.8738 135.326 98.9292C135.326 102.984 138.644 106.302 142.699 106.302H144.778V189.67H142.699C138.644 189.67 135.326 192.988 135.326 197.043C135.326 201.097 138.642 204.414 142.696 204.415H51.2249V219.728H65.3799V311.603H51.2249V326.915H107.061C103.288 328.225 100.542 331.785 100.542 335.99V397.24V425.029C100.542 426.909 101.108 428.655 102.049 430.142C103.212 431.981 104.975 433.379 107.061 434.103H10.4637C5.16115 434.103 0.822754 438.442 0.822754 443.745V532.785C0.822754 538.087 5.16115 542.426 10.4637 542.426H111.192C83.9557 546.288 62.8291 569.841 62.8291 598.099V608.119C62.8291 639.049 88.1342 664.356 119.064 664.359H64.1523C60.0974 664.359 56.7796 667.677 56.7796 671.732C56.7796 675.787 60.0969 679.105 64.1523 679.105H69.6344V762.473H64.1523C60.0974 762.473 56.7796 765.79 56.7796 769.845C56.7796 773.9 60.0969 777.218 64.1523 777.218H98.2744C92.0881 777.218 87.0263 782.28 87.0263 788.466V856.711C87.0263 857.484 87.1052 858.24 87.2558 858.97C87.475 860.034 87.8899 861.016 88.3877 861.948C88.6246 862.393 88.8904 862.819 89.1813 863.226C89.6133 863.831 90.1195 864.375 90.6575 864.883C92.6575 866.773 95.3186 867.959 98.2744 867.959H674.669C680.856 867.959 685.917 862.897 685.917 856.711V788.466C685.917 782.28 680.856 777.218 674.669 777.218H560.959C565.014 777.218 568.332 773.9 568.332 769.845C568.332 765.79 565.014 762.473 560.959 762.473H558.88V679.105H560.959C565.014 679.105 568.332 675.787 568.332 671.732C568.332 667.678 565.016 664.36 560.961 664.359H657.56V649.047H638.278V557.171H657.56V541.859H596.654C597.675 541.495 598.617 540.966 599.448 540.297C599.449 540.297 599.451 540.296 599.451 540.295C599.826 539.993 600.174 539.664 600.5 539.312C600.57 539.237 600.64 539.164 600.708 539.087C601.034 538.711 601.342 538.32 601.609 537.898C602.55 536.41 603.116 534.664 603.116 532.784V504.995V443.745C603.116 439.541 600.371 435.981 596.597 434.671H693.195C698.498 434.671 702.836 430.332 702.836 425.03V335.99C702.836 330.687 698.497 326.349 693.194 326.349Z" fill="#F3E6DA"/>
<path d="M674.669 777.218H98.2745C92.0882 777.218 87.0264 782.28 87.0264 788.466V856.711C87.0264 857.484 87.1053 858.239 87.2559 858.97C87.4751 860.033 87.89 861.016 88.3878 861.948C90.2843 865.5 93.9866 867.958 98.2745 867.958H153.948L173.23 867.959L191.378 867.958L674.669 867.959C680.855 867.959 685.917 862.897 685.917 856.711V788.466C685.918 782.28 680.856 777.218 674.669 777.218Z" fill="#56346B"/>
<path d="M98.2745 867.959H153.948V824.857H87.0269V856.711C87.0269 857.484 87.1058 858.239 87.2564 858.97C87.4756 860.034 87.8905 861.016 88.3883 861.948C90.2843 865.5 93.9871 867.959 98.2745 867.959Z" fill="#492C5E"/>
<path d="M191.379 824.857H173.231V867.959H191.379V824.857Z" fill="#492C5E"/>
<path d="M674.669 867.959C680.856 867.959 685.917 862.898 685.917 856.712V824.858H558.88V847.543H266.24V824.858H210.662V867.96L674.669 867.959Z" fill="#492C5E"/>
<path d="M173.231 777.218H153.948V867.959H173.231V777.218Z" fill="#EFBB84"/>
<path d="M210.661 777.218H191.379V867.959H210.661V777.218Z" fill="#EFBB84"/>
<path d="M558.88 796.501H266.24V847.543H558.88V796.501Z" fill="#EFBB84"/>
<path d="M638.279 557.172H140.979C139.301 557.172 137.648 557.251 136.008 557.37C135.51 557.406 135.018 557.459 134.524 557.506C133.353 557.616 132.193 557.755 131.046 557.924C130.534 557.999 130.023 558.072 129.517 558.159C128.208 558.382 126.918 558.644 125.647 558.941C125.38 559.004 125.106 559.051 124.842 559.116C123.344 559.486 121.879 559.914 120.44 560.382C120.093 560.495 119.757 560.624 119.414 560.742C119.411 560.74 119.407 560.739 119.404 560.737C119.297 560.774 119.195 560.819 119.087 560.857C118.087 561.207 117.101 561.577 116.135 561.973C115.628 562.181 115.124 562.391 114.627 562.611C113.67 563.034 112.737 563.483 111.818 563.949C111.412 564.155 110.995 564.347 110.596 564.56C109.369 565.218 108.18 565.916 107.028 566.65C106.6 566.922 106.197 567.215 105.78 567.498C105.026 568.007 104.286 568.527 103.57 569.068C103.096 569.426 102.635 569.791 102.178 570.162C101.535 570.683 100.916 571.223 100.308 571.77C99.8871 572.148 99.458 572.518 99.0548 572.908C98.1539 573.779 97.2902 574.673 96.4786 575.597C96.1328 575.991 95.8263 576.404 95.4977 576.807C94.995 577.423 94.5006 578.043 94.0381 578.68C93.6845 579.168 93.352 579.664 93.0225 580.164C92.6286 580.76 92.2569 581.367 91.8993 581.98C91.6036 582.487 91.3035 582.99 91.0327 583.508C90.9778 583.613 90.9361 583.722 90.8822 583.827C88.4217 588.642 87.0264 593.872 87.0264 599.352V606.867C87.0264 627.049 105.407 644.024 129.723 648.102C140.827 637.927 147.71 623.816 147.71 608.214C147.71 599.474 145.551 591.202 141.701 583.827H638.278V557.172H638.279Z" fill="#BCADA2"/>
<path d="M147.71 608.213C147.71 599.474 145.551 591.202 141.701 583.827C136.746 574.334 128.98 566.341 119.413 560.742C119.41 560.74 119.407 560.738 119.404 560.736C119.296 560.774 119.194 560.819 119.086 560.856C118.087 561.207 117.101 561.577 116.134 561.973C115.627 562.18 115.124 562.391 114.626 562.611C113.67 563.033 112.737 563.483 111.817 563.948C111.411 564.154 110.994 564.346 110.595 564.56C109.369 565.218 108.179 565.916 107.028 566.649C106.6 566.922 106.196 567.215 105.779 567.497C105.026 568.007 104.285 568.527 103.569 569.068C103.096 569.426 102.635 569.79 102.178 570.161C101.535 570.683 100.916 571.222 100.307 571.769C99.8866 572.147 99.4575 572.518 99.0543 572.907C98.1534 573.778 97.2897 574.672 96.4781 575.597C96.1323 575.99 95.8258 576.403 95.4972 576.806C94.9945 577.422 94.5001 578.042 94.0377 578.679C93.6841 579.167 93.3515 579.663 93.022 580.163C92.6281 580.76 92.2564 581.366 91.8989 581.979C91.6031 582.486 91.303 582.99 91.0323 583.507C90.9773 583.612 90.9356 583.722 90.8817 583.827C88.4212 588.642 87.0259 593.872 87.0259 599.352V606.867C87.0259 627.049 105.407 644.024 129.723 648.102C140.827 637.927 147.71 623.815 147.71 608.213Z" fill="#736153"/>
<path d="M578.163 574.517H173.231V576.124H578.163V574.517Z" fill="#8E7E70"/>
<path d="M603.116 504.996V443.745C603.116 439.541 600.371 435.981 596.597 434.671H596.596C595.611 434.329 594.572 434.104 593.475 434.104H10.4637C5.16115 434.104 0.822754 438.443 0.822754 443.746V532.786C0.822754 538.088 5.16115 542.427 10.4637 542.427H593.475C593.48 542.427 593.485 542.426 593.49 542.426C595.746 542.422 597.809 541.617 599.449 540.299C599.45 540.298 599.451 540.297 599.452 540.296C599.826 539.995 600.174 539.666 600.5 539.313C600.57 539.238 600.64 539.165 600.708 539.088C601.034 538.713 601.342 538.321 601.609 537.899C602.55 536.411 603.116 534.666 603.116 532.785V504.996Z" fill="#F39138"/>
<path d="M531.584 504.995V434.104H512.302V504.995H192.513V434.104H173.231V504.995H153.948V434.104H134.665V504.995H114.249V439.208H56.7796V504.995H0.822754V532.784C0.822754 538.087 5.16115 542.425 10.4637 542.425H593.475C596.897 542.425 599.897 540.605 601.609 537.898C602.55 536.41 603.116 534.664 603.116 532.784V504.995L531.584 504.995Z" fill="#E17A27"/>
<path d="M114.249 439.208H56.7798V529.949H114.249V439.208Z" fill="#FAB732"/>
<path d="M153.948 434.104H134.666V541.859H153.948V434.104Z" fill="#FAB732"/>
<path d="M192.513 434.104H173.231V541.859H192.513V434.104Z" fill="#FAB732"/>
<path d="M531.584 434.104H512.302V541.859H531.584V434.104Z" fill="#FAB732"/>
<path d="M693.194 326.349H592.467C589.89 326.714 587.262 326.916 584.589 326.916H107.06C103.287 328.226 100.542 331.785 100.542 335.99V397.24V425.029C100.542 426.909 101.107 428.655 102.048 430.142C103.211 431.981 104.975 433.38 107.062 434.103H593.474C594.571 434.103 595.61 434.328 596.595 434.67H596.596H693.194C698.497 434.67 702.835 430.331 702.835 425.029V335.99C702.835 330.687 698.497 326.349 693.194 326.349Z" fill="#E62C23"/>
<path d="M592.501 397.24V326.349H592.467C589.89 326.714 587.262 326.916 584.589 326.916H561.527V397.24H100.542V425.029C100.542 426.909 101.108 428.655 102.049 430.142C103.211 431.981 104.975 433.38 107.062 434.103H593.475C594.572 434.103 595.611 434.328 596.595 434.67H693.194C698.496 434.67 702.835 430.331 702.835 425.028V397.239L592.501 397.24Z" fill="#CD1C1C"/>
<path d="M561.526 326.916V434.103H592.501V326.349H592.468C589.89 326.714 587.263 326.916 584.589 326.916H561.526Z" fill="#FFEECF"/>
<path d="M470.595 351.87H180.792V393.837H470.595V351.87Z" fill="#FFEECF"/>
<path d="M615.073 252.055C614.94 251.627 614.8 251.2 614.651 250.777C614.43 250.152 614.222 249.526 613.966 248.914C613.7 248.275 613.384 247.655 613.08 247.03C612.684 246.217 612.271 245.413 611.814 244.624C611.325 243.781 610.827 242.941 610.27 242.128C609.906 241.597 609.496 241.091 609.104 240.574C608.671 240.001 608.243 239.425 607.776 238.87C607.346 238.358 606.886 237.866 606.429 237.37C605.938 236.837 605.442 236.308 604.92 235.795C604.44 235.321 603.946 234.86 603.441 234.403C602.878 233.895 602.299 233.399 601.707 232.912C601.193 232.49 600.681 232.07 600.145 231.665C599.48 231.161 598.787 230.681 598.091 230.204C597.581 229.855 597.084 229.497 596.558 229.163C595.624 228.57 594.653 228.014 593.669 227.471C593.339 227.289 593.029 227.087 592.693 226.91C591.379 226.218 590.019 225.576 588.627 224.974C588.139 224.763 587.63 224.58 587.133 224.381C586.176 223.997 585.214 223.622 584.224 223.282C583.64 223.081 583.043 222.902 582.449 222.717C581.506 222.424 580.555 222.146 579.587 221.894C578.964 221.731 578.338 221.58 577.706 221.435C576.715 221.209 575.711 221.009 574.699 220.827C574.441 220.781 574.193 220.716 573.934 220.672C573.927 220.678 573.919 220.684 573.912 220.691C573.551 220.63 573.194 220.56 572.83 220.505C571.715 220.337 570.583 220.211 569.446 220.098C568.902 220.044 568.366 219.972 567.817 219.931C566.124 219.805 564.413 219.727 562.679 219.727H65.3799V252.054H556.642C556.186 254.828 555.949 257.669 555.949 260.561C555.949 280.551 567.25 298.09 584.254 308.038C603.261 301.496 616.631 286.629 616.631 269.423V261.908C616.631 258.513 616.055 255.224 615.073 252.055Z" fill="#CEBFB2"/>
<path d="M556.642 252.055C556.186 254.829 555.949 257.669 555.949 260.562C555.949 280.552 567.25 298.09 584.254 308.039C603.261 301.496 616.631 286.63 616.631 269.423V261.908C616.631 258.512 616.055 255.224 615.073 252.055C614.94 251.626 614.8 251.2 614.651 250.776C614.43 250.152 614.222 249.526 613.966 248.914C613.7 248.275 613.384 247.655 613.08 247.03C612.684 246.216 612.271 245.412 611.814 244.624C611.325 243.78 610.827 242.941 610.269 242.128C609.906 241.597 609.496 241.091 609.104 240.574C608.671 240.001 608.243 239.425 607.776 238.87C607.346 238.358 606.886 237.866 606.429 237.369C605.938 236.837 605.442 236.308 604.92 235.794C604.44 235.321 603.946 234.86 603.441 234.403C602.878 233.895 602.299 233.399 601.707 232.912C601.193 232.49 600.68 232.07 600.145 231.665C599.48 231.16 598.787 230.681 598.09 230.204C597.581 229.855 597.084 229.496 596.558 229.162C595.624 228.57 594.652 228.014 593.669 227.471C593.339 227.288 593.029 227.086 592.693 226.91C591.379 226.218 590.019 225.576 588.627 224.973C588.139 224.763 587.63 224.58 587.133 224.381C586.176 223.997 585.214 223.621 584.224 223.281C583.64 223.08 583.043 222.902 582.448 222.717C581.506 222.424 580.554 222.146 579.587 221.894C578.964 221.731 578.338 221.58 577.705 221.435C576.715 221.208 575.711 221.009 574.699 220.827C574.441 220.78 574.193 220.716 573.934 220.672C573.927 220.678 573.919 220.684 573.912 220.691C564.879 228.979 558.643 239.872 556.642 252.055Z" fill="#736153"/>
<path d="M528.159 243.312H123.228V244.918H528.159V243.312Z" fill="#8E7E70"/>
<path d="M512.28 231.401H107.348V233.008H512.28V231.401Z" fill="#8E7E70"/>
<path d="M597.349 0.81543H20.9542C14.7678 0.81543 9.70605 5.87722 9.70605 12.0636V80.3083C9.70605 86.4952 14.7678 91.5565 20.9542 91.5565H597.349C600.442 91.5565 603.254 90.2907 605.293 88.2524C605.381 88.1636 605.447 88.0538 605.532 87.9626C606.207 87.2411 606.766 86.4241 607.235 85.5462C607.626 84.814 607.94 84.0425 608.162 83.2259C608.417 82.2892 608.597 81.323 608.597 80.3083V12.0636C608.597 5.87722 603.535 0.81543 597.349 0.81543Z" fill="#EB5771"/>
<path d="M429.383 48.4547V20.0977H136.743V48.4547H9.70605V80.308C9.70605 86.4949 14.7678 91.5562 20.9542 91.5562H597.349C600.442 91.5562 603.254 90.2904 605.293 88.2521C605.381 88.1634 605.447 88.0535 605.532 87.9623C606.207 87.2409 606.766 86.4238 607.235 85.5459C607.626 84.8137 607.94 84.0422 608.162 83.2257C608.417 82.2889 608.597 81.3228 608.597 80.308V48.4547H429.383Z" fill="#D13F5E"/>
<path d="M558.88 679.104H69.6343V700.466H558.88V679.104Z" fill="#BCB2AC"/>
<path d="M64.1525 762.473C60.0976 762.473 56.7798 765.79 56.7798 769.845C56.7798 773.9 60.0971 777.218 64.1525 777.218H560.959C565.014 777.218 568.332 773.9 568.332 769.845C568.332 765.79 565.014 762.473 560.959 762.473H64.1525Z" fill="#E34637"/>
<path d="M119.064 664.359H64.1525C60.0976 664.359 56.7798 667.677 56.7798 671.732C56.7798 675.787 60.0971 679.105 64.1525 679.105H560.959C565.014 679.105 568.332 675.787 568.332 671.732C568.332 667.678 565.016 664.36 560.961 664.359H119.07C119.068 664.359 119.066 664.359 119.064 664.359Z" fill="#E34637"/>
<path d="M111.192 542.426C83.9556 546.288 62.8291 569.841 62.8291 598.099V608.119C62.8291 639.049 88.1342 664.356 119.064 664.359C119.065 664.359 119.067 664.359 119.07 664.359H657.561V649.047H140.979C137.119 649.047 133.359 648.711 129.724 648.102C105.408 644.024 87.0267 627.049 87.0267 606.867V599.352C87.0267 593.872 88.4215 588.642 90.8826 583.826H90.8521C90.9076 583.718 90.9762 583.615 91.0331 583.507C91.3038 582.99 91.6035 582.486 91.8997 581.979C92.2572 581.366 92.629 580.76 93.0228 580.163C93.3524 579.663 93.6844 579.167 94.0385 578.679C94.5005 578.042 94.9954 577.423 95.4981 576.806C95.8266 576.403 96.1337 575.99 96.4789 575.596C97.2901 574.672 98.1547 573.778 99.0552 572.907C99.4583 572.518 99.8875 572.147 100.308 571.769C100.917 571.221 101.536 570.683 102.179 570.161C102.635 569.79 103.096 569.426 103.57 569.068C104.286 568.526 105.027 568.007 105.78 567.497C106.197 567.214 106.601 566.921 107.029 566.649C108.18 565.916 109.37 565.218 110.596 564.56C110.995 564.346 111.412 564.154 111.818 563.948C112.738 563.482 113.671 563.033 114.627 562.611C115.125 562.391 115.628 562.18 116.135 561.973C117.102 561.577 118.087 561.207 119.087 560.856C119.195 560.819 119.297 560.774 119.405 560.736C119.75 560.617 120.091 560.495 120.441 560.382C121.88 559.914 123.345 559.486 124.842 559.116C125.107 559.051 125.381 559.004 125.647 558.941C126.919 558.644 128.209 558.382 129.518 558.159C130.024 558.072 130.534 557.999 131.046 557.924C132.193 557.754 133.353 557.616 134.525 557.506C135.019 557.459 135.51 557.406 136.008 557.37C137.648 557.251 139.301 557.172 140.979 557.172H657.561V541.859H596.598C595.613 542.201 594.574 542.426 593.475 542.426L111.192 542.426Z" fill="#2B446B"/>
<path d="M630.339 589.262H225.407V590.868H630.339V589.262Z" fill="#8E7E70"/>
<path d="M580.431 623.856H175.499V625.463H580.431V623.856Z" fill="#8E7E70"/>
<path d="M596.311 635.766H191.379V637.373H596.311V635.766Z" fill="#8E7E70"/>
<path d="M639.506 106.302C643.561 106.302 646.879 102.984 646.879 98.9294C646.879 94.8745 643.561 91.5566 639.506 91.5566H142.699C138.644 91.5566 135.326 94.874 135.326 98.9294C135.326 102.984 138.644 106.302 142.699 106.302H639.506Z" fill="#E34637"/>
<path d="M584.601 204.415H639.506C643.561 204.415 646.879 201.098 646.879 197.043C646.879 192.988 643.561 189.67 639.506 189.67H142.699C138.644 189.67 135.326 192.988 135.326 197.043C135.326 201.097 138.642 204.413 142.696 204.415H584.589C584.593 204.415 584.597 204.415 584.601 204.415Z" fill="#E34637"/>
<path d="M584.589 326.916C587.263 326.916 589.891 326.714 592.467 326.349C619.703 322.486 640.829 298.934 640.829 270.675V260.656C640.829 229.727 615.528 204.422 584.601 204.416C584.597 204.416 584.593 204.415 584.589 204.415H51.2251V219.727H65.3801L562.68 219.727C564.414 219.727 566.125 219.805 567.819 219.931C568.367 219.973 568.903 220.045 569.447 220.099C570.585 220.212 571.716 220.338 572.831 220.505C573.199 220.561 573.569 220.611 573.935 220.673C574.194 220.716 574.442 220.781 574.7 220.827C575.713 221.01 576.716 221.209 577.706 221.436C578.339 221.58 578.966 221.732 579.588 221.894C580.556 222.146 581.507 222.424 582.449 222.717C583.044 222.903 583.641 223.081 584.225 223.282C585.214 223.622 586.177 223.997 587.134 224.382C587.631 224.581 588.139 224.763 588.627 224.974C590.019 225.576 591.38 226.218 592.694 226.911C593.029 227.087 593.339 227.289 593.669 227.471C594.653 228.015 595.625 228.57 596.559 229.163C597.085 229.497 597.582 229.855 598.091 230.204C598.788 230.681 599.481 231.161 600.146 231.665C600.681 232.07 601.194 232.491 601.708 232.913C602.3 233.4 602.879 233.895 603.441 234.404C603.947 234.86 604.44 235.322 604.921 235.795C605.442 236.309 605.939 236.837 606.43 237.37C606.887 237.866 607.347 238.358 607.777 238.87C608.243 239.426 608.672 240.001 609.105 240.574C609.496 241.092 609.907 241.597 610.27 242.129C610.827 242.942 611.326 243.781 611.815 244.624C612.272 245.413 612.685 246.217 613.081 247.031C613.385 247.655 613.7 248.276 613.967 248.914C614.223 249.527 614.431 250.153 614.651 250.777C614.802 251.205 614.987 251.622 615.121 252.056H615.074C616.055 255.224 616.632 258.513 616.632 261.909V269.424C616.632 286.631 603.261 301.497 584.255 308.039C577.635 310.318 570.345 311.604 562.68 311.604H51.2251V326.917H584.589V326.916Z" fill="#196043"/>
<path d="M530.427 292.651H125.496V294.258H530.427V292.651Z" fill="#8E7E70"/>
<path d="M478.252 277.906H73.3198V279.513H478.252V277.906Z" fill="#8E7E70"/>
<path d="M429.383 20.0977H136.743V71.1393H429.383V20.0977Z" fill="#EFBB84"/>
</svg>
