<svg width="684" height="852" viewBox="0 0 684 852" fill="none" xmlns="http://www.w3.org/2000/svg">
<path d="M378.965 705.002V808.264H304.271V706.647L378.965 705.002Z" fill="#C9815D"/>
<path d="M452.849 3.16359C425.581 -6.72941 395.456 7.35359 385.561 34.6216L370.906 75.0056L172.843 620.99L158.19 661.37C148.295 688.639 162.38 718.766 189.65 728.659C383.49 784.511 590.14 681.232 659.946 488.788C729.761 296.34 637.395 84.5796 452.849 3.16359ZM614.468 472.283C553.775 639.608 374.85 729.885 206.187 683.059L205.789 682.935L221.817 638.764L419.881 92.7736L435.925 48.5546L436.301 48.7646C595.759 120.971 675.167 304.969 614.468 472.283Z" fill="#E5966A"/>
<path d="M574.882 457.929C519.076 611.746 349.145 691.209 195.317 635.403C41.5001 579.597 -37.9629 409.666 17.8431 255.838C73.6491 102.021 243.58 22.5576 397.409 78.3636C551.224 134.17 630.687 304.101 574.882 457.929Z" fill="#48A4FF"/>
<path d="M480.702 851.434H202.535C192.18 851.434 185.049 841.11 188.634 831.395C191.558 823.47 196.168 816.361 202.027 810.502C212.503 800.026 226.975 793.547 242.959 793.547H440.278C465.203 793.547 486.45 809.302 494.603 831.396C498.187 841.11 491.056 851.434 480.702 851.434Z" fill="#E5966A"/>
<path d="M183.442 427.14C179.374 439.974 164.345 445.517 152.676 438.809C144.562 434.123 135.956 430.638 126.676 430.238C111.065 429.587 93.9221 441.998 95.8191 457.507C96.8931 466.273 103.453 473.336 106.288 481.69C108.997 489.701 108.151 498.421 107.282 506.833C104.276 535.656 82.2651 520.993 106.585 584.502C23.2941 515.062 -16.981 403.371 6.73404 294.296C48.334 290.422 29.9911 314.045 70.8141 314.01C86.8941 313.999 88.2541 327.381 100.494 327.976C107.397 328.319 114.791 322.662 120.551 326.467C125.922 329.998 125.351 337.838 127.122 344.021C131.705 360.101 151.933 364.432 165.59 374.101C177.43 382.478 185.053 396.512 185.647 411.004C185.865 416.454 185.099 421.94 183.442 427.14Z" fill="#7BEFAC"/>
<path d="M589.27 311.975C587.693 312.158 585.727 312.329 584.561 312.341C571.887 312.478 558.127 309.735 547.35 316.387C537.59 322.421 533.51 334.25 528.836 344.73C512.653 381.061 487.076 410.558 457.099 436.924C460.23 437.975 463.453 439.118 466.733 440.49C470.356 442.01 470.596 447.05 467.144 448.936C399.624 485.713 380.778 554.136 324.653 590.422C314.287 597.131 299.83 602.433 290.459 594.411C280.802 586.16 284.31 570.72 288.63 558.777C296.916 535.863 305.19 512.948 313.476 490.046C317.533 478.823 321.556 466.16 316.527 455.338C312.893 447.498 305.155 442.378 297.316 438.789C284.653 433.006 270.847 430.16 258.059 424.698C245.259 419.235 232.905 410.287 228.356 397.144C222.745 380.95 230.322 363.27 239.282 348.653C249.156 332.516 261.773 316.859 279.362 309.887C295.43 303.521 313.808 305.281 330.059 311.133C340.848 315.019 379.51 329.407 388.368 332.939C402.985 338.745 416.208 350.402 419.671 365.739C423.328 381.888 415.888 399.602 422.037 414.973C425.34 423.224 431.397 427.362 438.951 430.504C451.5 415.59 463.625 398.984 463.683 379.727C463.717 372.813 462.151 365.727 464.106 359.098C468.06 345.635 484.975 338.709 487.763 324.961C490.529 311.327 477.992 299.59 465.877 292.732C454.986 286.549 443.123 281.646 430.643 280.503C425.752 280.057 420.734 280.24 415.877 281.109C405.614 282.96 395.374 277.715 391.203 268.149C384.803 253.475 371.74 241.566 356.106 237.84C348.038 235.931 339.569 235.989 331.58 233.783C323.58 231.577 315.603 226.263 313.774 218.183C312.528 212.652 314.357 206.949 316.163 201.577C319.9 190.457 324.243 178.526 334.014 172.069C348.437 162.526 367.443 168.869 384.243 172.926C403.511 177.577 424.552 178.595 442.517 170.217C457.546 163.211 471.568 140.08 466.768 114.423C533.419 161.198 577.133 233.209 589.27 311.975Z" fill="#7BEFAC"/>
<path d="M249.636 144.227C236.276 151.644 217.91 150.661 208.31 162.547C199.956 172.89 202.413 187.816 203.556 201.038C204.687 214.284 202.025 230.684 189.567 235.301C177.51 239.758 165.053 229.884 157.178 219.724C154.241 215.93 150.584 211.541 145.807 211.975C141.567 212.352 138.63 216.592 137.773 220.764C136.916 224.935 137.522 229.267 137.087 233.507C135.384 249.827 118.207 260.993 101.807 261.644C85.4069 262.284 66.8699 259.233 55.1439 247.747C50.1609 242.867 40.8699 233.016 31.4639 224.101C71.6349 143.724 144.95 88.25 228.264 68.501C229.03 69.095 229.807 69.667 230.607 70.204C240.55 77.015 252.287 81.793 259.875 91.153C272.836 107.084 267.579 134.261 249.636 144.227Z" fill="#7BEFAC"/>
</svg>
