<svg width="640" height="864" viewBox="0 0 640 864" fill="none" xmlns="http://www.w3.org/2000/svg">
<path d="M131.665 570.222L80.7798 658.917L153.493 696.837L203.96 607.265L131.665 570.222Z" fill="#D18133"/>
<path d="M131.665 570.222L80.7798 658.917L153.493 696.837L203.96 607.265L131.665 570.222Z" fill="#D18133"/>
<path d="M408.747 63.2132L448.27 0L498.986 27.5338L460.329 92.2905L408.747 63.2132Z" fill="#D18133"/>
<path d="M582.403 329.411C582.403 377.757 570.633 423.314 549.781 463.385C501.315 556.821 403.747 620.602 291.202 620.602C233.007 620.602 178.836 603.534 133.397 574.118C53.1259 522.337 0 432.107 0 329.401C0 218.548 61.9188 122.145 153.084 72.9825C194.151 50.7264 241.212 38.1494 291.202 38.1494C347.175 38.1494 399.435 53.9329 443.758 81.3174C472.536 99.0326 498.049 121.627 519.02 148.016C550.886 187.977 572.435 236.503 579.664 289.569C581.009 299.238 581.875 309.027 582.164 318.985C582.343 322.42 582.403 325.915 582.403 329.411Z" fill="#459AE6"/>
<path d="M639.999 331.545C639.999 524.332 483.798 680.603 291.141 680.603C233.614 680.603 179.432 666.731 131.664 642.125L146.392 615.298C189.848 637.484 239.061 650.051 291.151 650.051C466.989 650.051 609.518 507.453 609.518 331.555C609.518 214.489 546.364 112.2 452.261 56.9037L466.919 30.1367C570.443 90.5917 639.999 202.948 639.999 331.545Z" fill="#D18133"/>
<path d="M269.393 676.744H239.091V742.746H269.393V676.744Z" fill="#D18133"/>
<path d="M302.115 742.745H203.959V817.998H302.115V742.745Z" fill="#D18133"/>
<path d="M443.896 837.628H66.5283V863.807H443.896V837.628Z" fill="#C87A2D"/>
<path d="M408.747 63.2132L448.27 0L498.986 27.5338L460.329 92.2905L408.747 63.2132Z" fill="#D18133"/>
<path d="M639.999 331.545C639.999 524.332 483.798 680.603 291.141 680.603C233.614 680.603 179.432 666.731 131.664 642.125L146.392 615.298C189.848 637.484 239.061 650.051 291.151 650.051C466.989 650.051 609.518 507.453 609.518 331.555C609.518 214.489 546.364 112.2 452.261 56.9037L466.919 30.1367C570.443 90.5917 639.999 202.948 639.999 331.545Z" fill="#D18133"/>
<path d="M269.393 676.744H239.091V742.746H269.393V676.744Z" fill="#D18133"/>
<path d="M302.115 742.745H203.959V817.998H302.115V742.745Z" fill="#D18133"/>
<path d="M443.896 837.628H66.5283V863.807H443.896V837.628Z" fill="#C87A2D"/>
<path d="M66.5283 837.63L203.959 794.004H255.222H302.114L443.906 837.63H66.5283Z" fill="#C87A2D"/>
<path d="M66.5283 837.63L203.959 794.004H255.222H302.114L443.906 837.63H66.5283Z" fill="#D18133"/>
<path d="M291.201 322.115C282.627 332.661 264.603 315.443 239.091 311.799C213.32 308.114 187.797 338.984 203.949 366.169C220.111 393.355 172.661 397.238 199.299 447.725C225.936 498.212 250.503 471.993 254.237 513.747C257.971 555.491 248.262 582.676 273.506 605.012C273.506 605.012 290.863 610.837 293.043 607.92C295.224 605.012 289 592.992 291.201 588.262C293.412 583.532 297.773 571.513 319.621 551.129C341.469 530.745 353.12 517.64 353.12 499.437C353.12 481.234 389.417 476.135 385.832 439.729C382.247 403.323 377.875 377.113 353.12 369.097C328.364 361.091 333.443 348.853 315.618 332.691C309.803 327.393 296.32 315.832 291.201 322.115Z" fill="#BFE979"/>
<path d="M168.181 321.741C168.181 321.741 177.651 327.567 182.013 321.741C186.384 315.916 166.717 304.265 156.53 309.364C146.333 314.462 168.181 321.741 168.181 321.741Z" fill="#BFE979"/>
<path d="M324.988 141.902C303.608 143.823 313.337 157.456 309.433 190.427C305.53 223.457 272.559 211.807 233.703 209.885C194.847 207.903 212.323 233.186 203.938 225.379C195.554 217.632 178.366 207.435 148.542 232.898C118.658 258.41 128.148 253.282 131.653 275.189C135.208 296.977 139.47 290.704 140.506 299.188C141.601 308.12 124.125 295.364 124.125 295.364C124.125 295.364 103.582 290.943 104.418 281.911C105.852 266.297 83.1778 253.312 83.2475 235.108C83.3968 200.096 118.2 150.645 143.424 105.963C151.519 91.6335 153.501 81.2673 153.093 72.9922C194.16 50.7361 241.221 38.1592 291.21 38.1592C301.168 44.1638 258.01 52.6082 258.936 72.9922C259.932 93.3762 272.569 100.138 296.797 85.5692C321.084 71.0106 337.575 97.2199 354.115 114.696C370.595 132.172 346.308 139.97 324.988 141.902Z" fill="#BFE979"/>
<path d="M402.64 89.0992C402.64 89.0992 389.167 86.1915 388.809 100.382C388.44 114.582 396.815 121.134 402.64 126.591C408.466 132.048 402.64 141.518 411.742 150.988C420.843 160.448 439.415 162.639 446.694 150.988C453.974 139.337 459.441 122.229 446.694 108.388C433.948 94.5562 420.475 89.0992 402.64 89.0992Z" fill="#BFE979"/>
<path d="M579.664 289.562C571.688 289.154 560.266 285.598 545.817 285.598C518.672 285.598 518.144 268.122 494.842 254.022C471.54 239.921 493.916 208.872 504.103 199.671C514.3 190.41 513.304 190.938 515.465 181.209C517.566 171.48 507.947 169.558 511.85 167.108C515.754 164.718 519.02 147.999 519.02 147.999C550.886 187.98 572.435 236.496 579.664 289.562Z" fill="#BFE979"/>
<path d="M582.404 329.412C582.404 377.758 570.634 423.315 549.782 463.386C548.557 455.062 549.782 444.805 545.291 437.057C535.801 420.746 515.238 423.425 507.49 379.739C499.743 336.054 522.397 313.738 540.232 316.307C558.117 318.866 551.186 324.283 566.442 320.27C575.006 318.06 579.726 318.288 582.165 318.986C582.345 322.421 582.404 325.916 582.404 329.412Z" fill="#BFE979"/>
</svg>
