<svg width="718" height="813" viewBox="0 0 718 813" fill="none" xmlns="http://www.w3.org/2000/svg">
<path d="M471.982 108.223L475.277 107.737C490.638 105.334 505.235 98.0749 520.707 95.5179C575.957 86.3909 634.025 101.486 679.04 134.336C682.429 136.788 685.721 139.364 688.914 142.064C632.88 199.763 577.161 257.478 520.304 314.397C490.276 344.462 456.33 372.772 429.236 405.46L427.335 403.14C394.335 362.134 374.243 304.975 379.315 252.132C380.797 236.68 387.338 221.784 388.687 206.478C388.753 205.739 388.753 205 388.782 204.262C402.358 192.79 410.907 167.377 422.699 152.805C436.634 135.59 458.734 125.534 471.982 108.223Z" fill="#2D4274"/>
<path d="M429.238 405.461C456.332 372.773 490.278 344.463 520.306 314.398C577.162 257.48 632.881 199.764 688.916 142.065C699.516 152.051 708.722 161.979 717.595 173.525C632.133 260.993 545.874 347.667 458.818 433.547C447.798 425.246 438.095 416.053 429.238 405.461Z" fill="#202C52"/>
<path d="M283.791 69.6745C282.778 66.2425 281.807 62.8265 281.126 59.3105C278.478 45.6475 282.222 32.0383 290.224 20.7573C297.973 9.83726 310.121 2.02233 323.485 0.35833C337.102 -1.33967 349.956 3.07236 360.291 11.9924C376.22 25.7304 380.333 40.3065 381.3 60.7475C387.787 67.5335 394.656 73.3895 401.89 79.3415C408.39 74.7265 414.773 70.0815 421.729 66.1645L452.425 91.1703C459.082 96.7273 465.706 102.227 471.982 108.224C458.734 125.535 436.633 135.591 422.7 152.807C410.908 167.379 402.359 192.792 388.783 204.264C375.801 190.775 351.732 170.509 345.461 153.31C343.178 147.047 345.677 143.872 348.026 138.203C340.842 124.702 328.723 113.255 318.151 102.41C280.868 137.854 171.526 213.615 152.571 251.869C144.615 267.927 141.058 286.878 142.988 304.724C147.333 344.9 169.094 403.748 180.769 443.737C206.286 531.133 229.935 619.797 259.988 705.751C293.648 705.564 326.025 703.85 357.128 719.086C397.084 738.655 417.885 771.107 432.101 812.013L0 811.669C6.213 786.426 14.638 764.238 32.967 745.263C80.12 696.438 145.887 706.125 207.624 705.324C183.178 625.08 159.403 544.639 136.3 464C122.537 417.242 105.537 369.33 95.651 321.646C92.65 307.182 90.799 292.527 92.26 277.751C92.556 274.937 92.939 272.136 93.41 269.346C93.883 266.56 94.4429 263.79 95.0909 261.037C95.7409 258.284 96.4759 255.554 97.2949 252.848C98.1169 250.139 99.0239 247.461 100.018 244.813C101.008 242.165 102.082 239.55 103.239 236.969C104.395 234.388 105.634 231.846 106.954 229.345C108.271 226.841 109.667 224.383 111.142 221.97C112.617 219.557 114.166 217.193 115.79 214.877C136.583 185.7 171.223 162.868 198.868 140.149L283.791 69.6745Z" fill="#202C52"/>
<path d="M401.891 79.3401C408.391 74.7251 414.774 70.0801 421.73 66.1631L452.426 91.1692C428.091 114.356 405.367 139.027 384.256 165.183C375.557 155.87 366.318 143.813 354.294 138.82C360.769 120.251 400.658 89.3341 401.891 79.3401Z" fill="#2D4274"/>
</svg>
