<svg width="600" height="856" viewBox="0 0 600 856" fill="none" xmlns="http://www.w3.org/2000/svg">
<path d="M290.086 822.431H301.658H313.229V594.471V366.511H301.658H290.086V594.471V822.431Z" fill="#D7A778"/>
<path d="M172.715 855.149H301.658H430.601C433.854 855.149 436.831 853.768 438.98 851.558C441.128 849.348 442.448 846.278 442.448 842.872V838.789V834.707C442.448 831.3 441.128 828.231 438.98 826.021C436.831 823.78 433.885 822.43 430.601 822.43H301.658H172.715C169.43 822.43 166.484 823.811 164.335 826.021C162.187 828.231 160.867 831.3 160.867 834.707V838.789V842.872C160.867 846.278 162.187 849.348 164.335 851.558C166.514 853.768 169.461 855.149 172.715 855.149Z" fill="#E6A28A"/>
<path d="M485.235 333.791C485.235 373.6 485.235 413.41 485.235 453.219C485.235 493.028 485.235 532.838 485.235 572.678C485.235 578.325 485.235 583.942 485.235 589.559C485.235 595.176 485.235 600.824 485.235 606.441C485.235 608.037 484.069 608.804 482.872 608.804C481.675 608.804 480.508 608.006 480.508 606.441C480.508 566.631 480.508 526.822 480.508 487.013C480.508 447.203 480.508 407.394 480.508 367.554C480.508 361.937 480.508 356.289 480.508 350.672C480.508 345.025 480.508 339.408 480.508 333.791C480.508 332.226 481.675 331.428 482.872 331.428C484.038 331.397 485.235 332.195 485.235 333.791Z" fill="#4F4F4F"/>
<path d="M471.822 617.828H482.872H493.89V610.83V603.832H482.872H471.822V610.83V617.828Z" fill="#E6A28A"/>
<path d="M7.79879 397.05H300H592.202C594.933 397.05 597.235 395.423 598.616 393.06C599.998 390.697 600.458 387.535 599.476 384.527L539.931 201.502L480.385 18.4775C478.574 12.922 475.413 8.28725 471.454 5.06444C467.494 1.84163 462.706 0 457.672 0H300.031H142.389C137.356 0 132.568 1.84163 128.608 5.06444C124.649 8.28725 121.457 12.8913 119.676 18.4775L60.1311 201.502L0.585829 384.527C-0.396361 387.535 0.0640369 390.666 1.44524 393.06C2.76506 395.423 5.06707 397.05 7.79879 397.05Z" fill="#E6A28A"/>
<path d="M295.212 0.03125C300.246 0.03125 305.034 1.87277 308.993 5.09557C312.953 8.31838 316.114 12.9224 317.925 18.4779L377.47 201.503L437.016 384.528C437.998 387.536 437.537 390.666 436.156 393.06C434.775 395.424 432.473 397.051 429.741 397.051H473.111H516.481C519.213 397.051 521.514 395.424 522.896 393.06C524.277 390.697 524.737 387.536 523.755 384.528L464.21 201.503L404.665 18.4779C402.854 12.9224 399.692 8.31838 395.733 5.09557C391.773 1.87277 386.985 0.03125 381.952 0.03125H338.582H295.212Z" fill="#E6A28A"/>
</svg>
