<svg width="723" height="770" viewBox="0 0 723 770" fill="none" xmlns="http://www.w3.org/2000/svg">
<path d="M307.912 210.721C307.912 210.721 355.796 389.997 321.132 508.329C335.424 511.409 343.3 508.329 343.3 508.329C343.3 508.329 363.792 281.233 307.912 210.721Z" fill="#347A34"/>
<path d="M396.132 303.333C396.132 303.333 352.132 437.333 353.132 504.333C344.132 529.333 329.98 504.333 329.98 504.333C329.98 504.333 343.3 369.333 396.132 303.333Z" fill="#347A34"/>
<path d="M396.132 353.333C396.132 353.333 369.224 464.933 373.444 519.617C367.816 540.477 355.652 520.741 355.652 520.741C355.652 520.741 358.928 409.809 396.132 353.333Z" fill="#347A34"/>
<path d="M403.924 497.833C403.924 497.833 451.132 442.333 484.132 432.333C492.132 423.833 484.132 424.333 484.132 424.333C484.132 424.333 411.132 461.833 391.632 500.333C395.632 510.333 403.924 497.833 403.924 497.833Z" fill="#347A34"/>
<path d="M407.816 434.941C407.816 434.941 380.692 463.641 378.048 518.257C366.132 520.833 364.268 512.533 364.268 512.533C364.268 512.533 388.632 421.441 426.632 418.137C414.632 426.333 407.816 434.941 407.816 434.941Z" fill="#347A34"/>
<path d="M335.44 482.665C335.44 482.665 331.464 428.273 285.12 389.581C262.272 370.505 267.444 355.941 248.628 350.809C229.812 345.677 202.44 329.713 195.028 322.297C187.616 314.885 76.3039 288.877 47.7959 299.141C79.7279 307.125 110.496 353.069 126.464 354.209C142.428 355.349 162.988 373.757 185.796 389.721C208.604 405.685 226.388 395.853 241.216 403.265C256.044 410.677 310.212 439.781 335.44 482.665Z" fill="#347A34"/>
<path d="M321.6 225.741C321.6 225.741 302.212 151.613 252.036 140.213C201.86 128.809 185.892 109.421 153.96 99.157C122.028 88.893 91.2358 113.981 91.2358 113.981C91.2358 113.981 129.44 114.553 166.216 141.065C202.992 167.577 271.704 216.333 321.6 225.741Z" fill="#5CAA2E"/>
<path d="M321.6 225.741C321.6 225.741 297.976 177.529 247.8 166.125C197.624 154.721 186.064 126.593 154.132 116.329C122.2 106.065 91.2358 113.981 91.2358 113.981C91.2358 113.981 129.44 114.553 166.216 141.065C202.992 167.577 271.704 216.333 321.6 225.741Z" fill="#347A34"/>
<path d="M468.712 437.857C468.712 437.857 484.676 405.357 513.188 386.541C541.7 367.725 562.796 372.001 579.332 363.021C595.868 354.041 637.492 344.917 656.88 351.189C676.268 357.461 709.16 358.033 722.364 396.233C709.336 388.249 688.24 398.513 665.432 406.497C642.624 414.481 615.736 398.513 595.54 406.497C575.344 414.481 557.096 433.865 535.428 435.009C513.756 436.145 468.712 437.857 468.712 437.857Z" fill="#347A34"/>
<path d="M402.28 437.856C402.28 437.856 399.716 394.236 436.492 372.852C473.268 351.468 508.336 336.076 522.876 311.272C537.416 286.468 585.312 274.496 631.5 295.02C597.288 293.308 553.668 325.812 507.48 366.864C461.296 407.92 402.28 437.856 402.28 437.856Z" fill="#3AA33A"/>
<path d="M402.28 437.857C402.28 437.857 399.716 394.237 436.492 372.853C473.268 351.469 509.256 356.801 523.796 331.997C538.336 307.193 585.312 274.493 631.5 295.021C597.288 293.309 553.668 325.813 507.48 366.865C461.296 407.921 402.28 437.857 402.28 437.857Z" fill="#347A34"/>
<path d="M370.844 437.857C370.844 437.857 376.704 336.317 419.964 316.461C463.224 296.605 460.26 256.009 506.66 234.233C553.06 212.457 589.7 176.817 648.684 183.049C595.92 200.581 581.348 225.189 559.276 254.609C537.204 284.025 511.324 297.981 501.84 309.461C492.36 320.937 463.328 359.353 445.376 365.389C427.428 371.429 381.068 412.813 370.844 437.857Z" fill="#3AA33A"/>
<path d="M370.844 437.857C370.844 437.857 389.704 350.185 432.964 330.333C476.224 310.477 470.472 270.609 516.872 248.833C563.272 227.057 589.7 176.821 648.684 183.053C595.92 200.585 581.348 225.193 559.276 254.613C537.204 284.029 511.324 297.985 501.84 309.465C492.36 320.941 463.328 359.357 445.376 365.393C427.428 371.429 381.068 412.813 370.844 437.857Z" fill="#347A34"/>
<path d="M307.912 442.373C307.912 442.373 266 387.741 216.68 393.485C167.36 399.229 177.908 430.649 130.008 417.717C82.112 404.785 6.844 451.541 0 488.033C42.196 454.961 71.844 449.261 135.708 458.381C199.576 467.505 270.28 435.489 307.912 442.373Z" fill="#3AA33A"/>
<path d="M307.912 442.373C307.912 442.373 267.948 412.393 218.632 418.137C169.312 423.881 179.028 444.265 131.132 431.333C83.2359 418.401 6.84791 451.541 0.00390625 488.037C42.1999 454.965 71.8479 449.265 135.712 458.385C199.576 467.505 270.28 435.489 307.912 442.373Z" fill="#347A34"/>
<path d="M321.132 508.332C321.132 508.332 331.632 456.332 276.632 426.832C301.132 425.832 329.32 456.332 337.476 500.832C340.632 521.332 321.132 508.332 321.132 508.332Z" fill="#347A34"/>
<path d="M307.912 319.253C307.912 319.253 269.14 270.217 283.964 197.229C298.788 124.245 303.352 126.525 322.736 93.4528C342.124 60.3848 355.812 19.3288 395.724 15.9088C435.636 12.4888 429.936 -11.4592 468.708 6.7848C448.18 5.6448 408.268 24.7448 408.268 53.8248C408.268 82.9048 399.716 103.433 388.596 116.261C377.476 129.089 381.752 159.025 369.78 179.553C357.804 200.081 338.132 257.385 325.304 274.065C312.476 290.745 315.896 324.957 316.752 327.521C317.608 330.089 307.912 319.253 307.912 319.253Z" fill="#3AA33A"/>
<path d="M396.864 298.705C396.864 298.705 375.196 209.777 392.304 155.037C409.408 100.297 435.64 94.597 461.868 64.945C488.096 35.293 509.764 47.837 509.764 47.837C509.764 47.837 494.94 68.365 492.66 125.385C490.38 182.405 466.06 224.201 429.936 254.249C393.816 284.305 396.864 298.705 396.864 298.705Z" fill="#5CAA2E"/>
<path d="M302.212 340.98C302.212 340.98 274.844 247.408 220.104 225.74C165.364 204.072 161.944 213.197 123.172 210.917C84.4001 208.637 37.6401 226.88 15.9761 243.988C72.9961 226.88 132.296 254.116 169.932 275.852C207.56 297.584 302.212 340.98 302.212 340.98Z" fill="#3AA33A"/>
<path d="M302.212 340.981C302.212 340.981 261.156 279.001 206.42 257.333C151.68 235.665 156.408 218.113 117.636 215.833C78.8641 213.553 37.6401 226.885 15.9761 243.989C72.9961 226.881 132.296 254.117 169.932 275.853C207.56 297.585 302.212 340.981 302.212 340.981Z" fill="#347A34"/>
<path d="M371.172 299.229C371.172 299.229 409.34 260.589 419.944 286.269C430.548 311.949 386.016 371.325 312.86 383.517C239.704 395.709 254.548 434.937 254.548 434.937C254.548 434.937 219.208 409.493 253.312 342.697C287.412 275.905 347.848 271.661 371.172 299.229Z" fill="#388C38"/>
<path d="M199.3 522.333L235.564 769.333H454.232L487.3 522.333H199.3Z" fill="#D18133"/>
<path d="M453.724 769.333L487.296 522.333H199.296L235.564 769.333H283.668C381.224 769.333 312.724 769.333 453.724 769.333Z" fill="#C87A2D"/>
<path d="M481.964 541.333H204.632C189.232 541.333 176.632 528.733 176.632 513.333C176.632 497.933 189.232 485.333 204.632 485.333H481.964C497.364 485.333 509.964 497.933 509.964 513.333C509.964 528.733 497.364 541.333 481.964 541.333Z" fill="#D18133"/>
<path d="M383.18 462.377C383.18 462.377 392.304 431.585 421.384 446.413C450.464 461.237 456.168 531.373 406.56 582.693C404.28 556.465 400.288 543.349 378.048 518.261C355.812 493.165 362.652 466.937 383.18 462.377Z" fill="#3AA33A"/>
</svg>
