<svg width="512" height="512" viewBox="0 0 512 512" fill="none"
  xmlns="http://www.w3.org/2000/svg">
  <g>
    <rect width="512" height="512" fill="currentColor"/>
    <path d="M165.015 133.117C202.046 160.879 241.877 217.169 256.501 247.377C271.126 217.171 310.955 160.878 347.987 133.117C374.707 113.085 418 97.585 418 146.906C418 156.756 412.345 229.651 409.028 241.485C397.499 282.629 355.486 293.123 318.115 286.772C383.439 297.874 400.056 334.649 364.168 371.424C296.01 441.268 266.205 353.9 258.565 331.514C257.165 327.41 256.51 325.49 256.5 327.122C256.49 325.49 255.835 327.41 254.435 331.514C246.798 353.9 216.994 441.27 148.832 371.424C112.943 334.649 129.56 297.872 194.885 286.772C157.513 293.123 115.5 282.629 103.972 241.485C100.655 229.65 95 156.755 95 146.906C95 97.585 138.294 113.085 165.013 133.117H165.015Z" fill="white"/>
  </g>
</svg>
