<svg width="800" height="800" viewBox="0 0 800 800" xmlns="http://www.w3.org/2000/svg"><path fill="currentColor" d="M800 0v800H539.8c-21.422 0-28.142-12.025-28.142-22.989 0-13.439.506-57.648.506-112.466a97.775 97.775 0 0 0-27.89-75.888c91.348-10.206 187.243-44.815 187.243-202.349a158.34 158.34 0 0 0-42.137-109.991 147.23 147.23 0 0 0-4.093-108.476s-34.356-11.014-112.669 42.036a388.232 388.232 0 0 0-205.279 0c-78.313-53.05-112.669-42.036-112.669-42.036a147.426 147.426 0 0 0-4.042 108.476 158.746 158.746 0 0 0-42.188 109.991c0 157.13 95.693 192.295 186.737 202.652a87.762 87.762 0 0 0-26.07 54.769 87.218 87.218 0 0 1-66.756 7.885 87.204 87.204 0 0 1-52.532-41.939 86.183 86.183 0 0 0-62.801-42.238s-40.066-.505-2.83 24.959a108.373 108.373 0 0 1 45.472 59.972s24.151 79.727 138.184 54.971c.202 34.154.505 59.921.505 69.723 0 10.812-7.427 22.938-27.94 22.938H0V0h800Z"/></svg>