<svg width="800" height="800" viewBox="0 0 800 800" fill="none" xmlns="http://www.w3.org/2000/svg">
<g clip-path="url(#clip0_171_55)">
<path d="M426.585 367.437V366.502C426.394 366.816 426.129 367.129 425.963 367.437H426.585Z" fill="black"/>
<path d="M80 80V720H720V80H80ZM279.064 611.695H184.11V326.022H279.064V611.695ZM231.587 287.031H230.96C199.108 287.031 178.462 265.087 178.462 237.658C178.462 209.627 199.711 188.305 232.209 188.305C264.714 188.305 284.689 209.627 285.311 237.658C285.311 265.087 264.714 287.031 231.587 287.031ZM621.538 611.695H526.56V458.859C526.56 420.472 512.837 394.268 478.461 394.268C452.209 394.268 436.608 411.911 429.735 429.001C427.237 435.106 426.585 443.592 426.585 452.152V611.697H331.588C331.588 611.697 332.86 352.823 331.588 326.023H426.585V366.503C439.206 347.083 461.73 319.316 512.184 319.316C574.689 319.316 621.538 360.136 621.538 447.876V611.695Z" fill="black"/>
<rect width="126" height="800" fill="black"/>
<rect x="48" width="702" height="107" fill="black"/>
<rect x="692" width="108" height="800" fill="black"/>
<rect x="48" y="685" width="703" height="115" fill="black"/>
</g>
<defs>
<clipPath id="clip0_171_55">
<rect width="800" height="800" fill="white"/>
</clipPath>
</defs>
</svg>
