<svg width="195" height="195" viewBox="0 0 195 195" xmlns="http://www.w3.org/2000/svg"><path d="M195 0v195H0V0h195ZM70.63 44H32.65v2.2l9.604 19.016a5.073 5.073 0 0 0 2.269.472l.237-.013v57.441L31 139.808v2.2h37.122v-2.201l-13.76-16.691V73.042l34.248 74.713h6.911l29.417-74.713v59.551c0 1.589 0 1.894-1.04 2.934l-10.58 10.272V148h51.372v-8.071l-10.213-10.027V56.228c-.914-.5-2.02-.5-2.935 0L162 46.201V44h-36.205l-25.81 64.381L70.63 44ZM46.534 65.216a5.072 5.072 0 0 1-1.753.459h-.021v-.459h1.774Z" fill="currentColor" fill-rule="nonzero"/></svg>