<svg width="800" height="800" viewBox="0 0 800 800" fill="none" xmlns="http://www.w3.org/2000/svg">
<g clip-path="url(#clip0_265_2)">
<path fill-rule="evenodd" clip-rule="evenodd" d="M800 0H0V800H800V0ZM210.306 244.6C225.931 237.517 250.702 231.475 273.598 229.183L273.619 229.185C299.225 226.477 324.413 227.727 332.538 231.894C346.683 239.185 349.6 254.79 342.517 286.019C340.642 293.727 339.183 300.602 339.183 301.019C339.183 301.644 345.433 296.435 353.35 289.352C381.665 263.54 418.935 241.894 449.123 233.352C504.708 217.935 554.875 233.977 566.75 270.81C574.042 292.894 571.125 318.708 554.667 375.542C543 416.544 541.125 425.919 541.125 444.648C541.125 470.877 550.292 482.96 571.335 484.627C587.148 485.877 595.273 482.356 613.169 466.106C628.565 452.148 633.565 449.856 642.106 452.981C647.94 455.273 651.481 464.627 649.398 473.169C645.648 490.254 613.604 526.671 586.729 544.588C557.375 563.942 529.706 572.483 495.54 572.483C459.54 572.483 433.102 562.712 415.415 543.129C398.123 523.981 392.29 502.544 395.415 472.125C397.894 447.354 400.185 438.417 414.352 396.771C432.894 342.854 433.31 323.292 417.06 310.375C401.663 298.312 374.6 311.833 352.515 342.646C326.702 378.875 296.119 468.19 289.452 527.942C285.494 560.4 285.285 561.858 280.285 564.567C275.91 567.067 262.387 568.108 191.387 571.65C163.096 572.9 160.804 572.692 156.221 568.963C152.054 565.627 151.012 562.294 150.179 552.502C149.137 537.502 152.242 520.627 170.533 439.877C195.327 331.602 198.869 305.185 191.369 283.517C184.077 262.704 188.035 254.996 210.306 244.6Z" fill="currentColor"/>
</g>
<defs>
<clipPath id="clip0_265_2">
<rect width="800" height="800" fill="white"/>
</clipPath>
</defs>
</svg>
